<?xml version="1.0" encoding="utf-8"?>
<!-- Generator: Adobe Illustrator 26.5.0, SVG Export Plug-In . SVG Version: 6.00 Build 0)  -->
<svg version="1.1" id="Capa_1" xmlns="http://www.w3.org/2000/svg" xmlns:xlink="http://www.w3.org/1999/xlink" x="0px" y="0px"
	 viewBox="0 0 64 64" style="enable-background:new 0 0 64 64;" xml:space="preserve">
<style type="text/css">
	.st0{fill:#FFFFFF;}
</style>
<path class="st0" d="M32.5,10.5c12.1,0,22,9.9,22,22s-9.9,22-22,22c-2.5,0-5-0.4-7.3-1.3c-8.8-3.1-14.7-11.4-14.7-20.7
	c0-9.3,5.9-17.6,14.7-20.7C27.5,10.9,30,10.5,32.5,10.5 M32.5,8.5c-2.8,0-5.5,0.5-8,1.4c-9.3,3.3-16,12.2-16,22.6s6.7,19.3,16,22.6
	c2.5,0.9,5.2,1.4,8,1.4c13.2,0,24-10.8,24-24S45.8,8.5,32.5,8.5L32.5,8.5z"/>
<g>
	<path class="st0" d="M40.5,32.5c0,10.4-6.7,19.3-16,22.6c-9.3-3.3-16-12.2-16-22.6s6.7-19.3,16-22.6C33.8,13.2,40.5,22.1,40.5,32.5
		z"/>
</g>
</svg>
