<?xml version="1.0" encoding="utf-8"?>
<!-- Generator: Adobe Illustrator 26.5.0, SVG Export Plug-In . SVG Version: 6.00 Build 0)  -->
<svg version="1.1" id="Capa_1" xmlns="http://www.w3.org/2000/svg" xmlns:xlink="http://www.w3.org/1999/xlink" x="0px" y="0px"
	 viewBox="0 0 64 64" style="enable-background:new 0 0 64 64;" xml:space="preserve">
<style type="text/css">
	.st0{fill:#FFFFFF;}
</style>
<path class="st0" d="M32.5,10.5c2.5,0,5,0.4,7.3,1.3c8.8,3.1,14.7,11.4,14.7,20.7c0,9.3-5.9,17.6-14.7,20.7
	c-2.3,0.8-4.8,1.3-7.3,1.3c-12.1,0-22-9.9-22-22S20.4,10.5,32.5,10.5 M32.5,8.5c-13.2,0-24,10.8-24,24s10.8,24,24,24
	c2.8,0,5.5-0.5,8-1.4c9.3-3.3,16-12.2,16-22.6s-6.7-19.3-16-22.6C38,9,35.3,8.5,32.5,8.5L32.5,8.5z"/>
<g>
	<path class="st0" d="M56.5,32.5c0,10.4-6.7,19.3-16,22.6c-9.3-3.3-16-12.2-16-22.6s6.7-19.3,16-22.6C49.8,13.2,56.5,22.1,56.5,32.5
		z"/>
</g>
</svg>
