<?xml version="1.0" encoding="utf-8"?>
<!-- Generator: Adobe Illustrator 26.5.0, SVG Export Plug-In . SVG Version: 6.00 Build 0)  -->
<svg version="1.1" id="Capa_1" xmlns="http://www.w3.org/2000/svg" xmlns:xlink="http://www.w3.org/1999/xlink" x="0px" y="0px"
	 viewBox="0 0 608 128" style="enable-background:new 0 0 608 128;" xml:space="preserve">
<style type="text/css">
	.st0{fill:#218DD6;}
	.st1{fill:url(#SVGID_1_);}
	.st2{fill:url(#SVGID_00000050646157664356132190000016529460280896202648_);}
	.st3{fill:url(#SVGID_00000111174552206624003060000016441953387843474304_);}
	.st4{fill:url(#SVGID_00000001628552784195930410000015287307379208869808_);}
</style>
<g>
	<path class="st0" d="M168,95.1c-8.4,0-15.5-1.2-21.2-3.7c-5.7-2.5-10-6.1-12.8-10.9c-2.8-4.8-4.3-10.7-4.3-17.8
		c0-10.3,3.3-18.2,9.8-23.8c6.5-5.6,16-8.4,28.3-8.4c7,0,13.2,1,18.6,3c5.4,2,9.5,4.9,12.5,8.6c3,3.8,4.5,8.3,4.5,13.6H190
		c0-3-0.9-5.6-2.8-7.6c-1.9-2-4.5-3.6-7.8-4.6c-3.3-1-7.2-1.5-11.7-1.5c-4.8,0-9,0.8-12.6,2.3c-3.5,1.5-6.3,3.8-8.2,6.7
		c-1.9,2.9-2.9,6.4-2.9,10.5v2.3c0,4.2,1,7.7,2.9,10.7c1.9,2.9,4.7,5.2,8.3,6.7c3.6,1.5,7.8,2.3,12.6,2.3c4.7,0,8.7-0.5,12-1.5
		c3.4-1,6-2.5,7.8-4.5c1.8-2,2.8-4.5,2.8-7.5h13.3c0,5.2-1.5,9.7-4.5,13.4c-3,3.8-7.1,6.6-12.4,8.6C181.4,94.1,175.2,95.1,168,95.1z
		"/>
	<path class="st0" d="M216.1,94V28.3h12.5V94H216.1z"/>
	<path class="st0" d="M269.5,95.1c-6.2,0-11.5-0.9-15.9-2.7c-4.5-1.8-7.9-4.5-10.3-8.2c-2.4-3.7-3.6-8.4-3.6-14.1
		c0-5.6,1.2-10.2,3.5-13.9c2.4-3.7,5.8-6.5,10.2-8.4c4.4-1.8,9.7-2.8,15.7-2.8c6.4,0,11.7,0.9,16,2.8c4.3,1.8,7.6,4.5,9.8,8.1
		c2.2,3.5,3.3,7.9,3.3,12.9v4.4h-45.3c0.2,3,1,5.3,2.4,7.1c1.4,1.8,3.4,3.1,5.9,3.9c2.5,0.8,5.4,1.2,8.8,1.2c1.3,0,2.8-0.2,4.5-0.5
		c1.7-0.3,3.3-0.8,4.8-1.4c1.5-0.6,2.9-1.4,4-2.4c1.1-1,1.7-2.2,1.9-3.7h12.7c0,2.4-0.6,4.7-1.9,6.9c-1.2,2.2-3.1,4-5.5,5.6
		c-2.4,1.6-5.4,2.9-8.9,3.8C278,94.7,274,95.1,269.5,95.1z M252.8,64.9h32.1c0-1.8-0.4-3.3-1.2-4.5s-2-2.3-3.4-3.1
		c-1.5-0.8-3.1-1.4-5-1.8c-1.9-0.4-3.9-0.6-6-0.6c-3.1,0-5.8,0.4-8.2,1.1c-2.4,0.8-4.3,1.9-5.7,3.4
		C253.9,60.8,253.1,62.7,252.8,64.9z"/>
	<path class="st0" d="M327.2,95.1c-2.8,0-5.5-0.2-7.9-0.7c-2.5-0.5-4.6-1.2-6.5-2.3c-1.8-1.1-3.3-2.5-4.3-4.3
		c-1-1.8-1.5-4.1-1.5-6.8c0-3.9,1.1-6.9,3.2-9.1c2.1-2.2,5.1-3.8,9-4.7c3.9-1,8.4-1.6,13.6-1.8c5.2-0.2,10.8-0.4,16.9-0.4v-2
		c0-2.1-0.5-3.7-1.5-4.9c-1-1.2-2.5-2.1-4.6-2.6c-2.1-0.5-4.8-0.8-8.2-0.8c-2.7,0-5.1,0.2-7.2,0.5c-2.1,0.4-3.7,0.9-4.8,1.6
		c-1.2,0.7-1.7,1.6-1.7,2.7v1.1h-12.5c-0.1-0.2-0.1-0.5-0.1-0.7c0-0.2,0-0.5,0-0.8c0-2.8,1-5.3,3.1-7.4c2.1-2.1,5.1-3.8,9.2-5
		c4.1-1.2,9.1-1.8,15.2-1.8c5.6,0,10.4,0.5,14.2,1.5c3.8,1,6.8,2.7,8.7,5.1c2,2.4,3,5.5,3,9.5v20.6c0,1.2,0.2,2,0.7,2.6
		c0.5,0.6,1.3,0.9,2.4,0.9h4.6v8.2c-0.6,0.2-1.7,0.6-3.3,1c-1.6,0.4-3.4,0.6-5.3,0.6c-2.7,0-4.7-0.3-6.2-1c-1.5-0.7-2.5-1.6-3.2-2.7
		c-0.6-1.1-1.1-2.4-1.3-3.8h-0.7c-1.7,1.6-3.7,2.9-6.1,4.1c-2.4,1.2-4.9,2-7.7,2.6C333.1,94.8,330.2,95.1,327.2,95.1z M330.3,85.4
		c1.9,0,4-0.2,6.2-0.6c2.2-0.4,4.3-1,6.3-1.9c2-0.8,3.6-1.8,4.9-3.1c1.2-1.2,1.9-2.7,1.9-4.3V73c-6.8,0-12.4,0.2-16.9,0.7
		c-4.5,0.5-7.8,1.2-9.9,2.3c-2.2,1.1-3.3,2.6-3.3,4.6c0,1.3,0.5,2.3,1.6,3c1.1,0.7,2.4,1.1,4.1,1.4
		C326.8,85.3,328.5,85.4,330.3,85.4z"/>
	<path class="st0" d="M376.2,94V46.2h10.1l0.9,8.4h0.7c0.7-1.7,1.6-3.3,2.9-4.7c1.3-1.5,2.9-2.6,4.8-3.5c1.9-0.9,4.1-1.3,6.5-1.3
		c1.1,0,2.2,0.1,3.2,0.2c1.1,0.2,2,0.4,2.9,0.7v11h-6.3c-2.4,0-4.5,0.4-6.1,1.2c-1.7,0.8-3,1.9-4,3.3c-1,1.4-1.8,2.9-2.3,4.6
		c-0.5,1.7-0.7,3.4-0.7,5.1V94H376.2z"/>
	<path class="st0" d="M448.8,95.1c-4.7,0-9.1-0.3-13.3-0.9c-4.1-0.6-7.7-1.6-10.8-3.1c-3.1-1.5-5.5-3.6-7.2-6.2
		c-1.7-2.7-2.6-6.1-2.6-10.3c0-0.1,0-0.3,0-0.5c0-0.2,0-0.3,0.1-0.5h13.6c-0.1,0.2-0.1,0.5-0.1,0.9c0,0.3,0,0.7,0,1.1
		c0,1.9,0.8,3.4,2.5,4.6c1.6,1.2,4,2,7,2.6c3,0.5,6.6,0.8,10.6,0.8c1.8,0,3.5-0.1,5.3-0.2c1.8-0.2,3.5-0.4,5.1-0.7
		c1.6-0.3,3.1-0.7,4.4-1.3c1.3-0.5,2.3-1.2,3.1-2c0.8-0.8,1.1-1.8,1.1-2.9c0-1.6-0.7-2.8-2.1-3.8c-1.4-0.9-3.3-1.7-5.8-2.3
		c-2.4-0.6-5.1-1.1-8.2-1.5c-3-0.4-6.2-0.9-9.4-1.4c-3.2-0.5-6.4-1.2-9.4-2.1c-3-0.9-5.8-2-8.2-3.4c-2.4-1.4-4.3-3.2-5.8-5.4
		c-1.4-2.2-2.1-4.9-2.1-8.1c0-2.9,0.7-5.5,2.1-7.7c1.4-2.2,3.5-4.1,6.2-5.7c2.7-1.5,6.1-2.7,10-3.5c4-0.8,8.5-1.2,13.7-1.2
		c5.2,0,9.7,0.4,13.6,1.3c3.9,0.8,7.1,2.1,9.6,3.6c2.5,1.6,4.4,3.5,5.7,5.7c1.2,2.2,1.9,4.7,1.9,7.4V50H466v-1.2
		c0-1.3-0.7-2.5-2.2-3.5c-1.5-1-3.4-1.8-5.9-2.5c-2.5-0.6-5.3-0.9-8.4-0.9c-4.4,0-7.9,0.3-10.6,0.8c-2.7,0.5-4.7,1.3-6,2.2
		c-1.3,0.9-1.9,2-1.9,3.1c0,1.4,0.7,2.5,2.1,3.4c1.4,0.8,3.3,1.5,5.8,2c2.4,0.5,5.1,1,8.2,1.4c3,0.4,6.2,0.9,9.4,1.5
		c3.2,0.5,6.4,1.2,9.4,2.1c3,0.8,5.8,2,8.2,3.4c2.4,1.4,4.3,3.2,5.8,5.4c1.4,2.2,2.1,4.8,2.1,7.9c0,4.8-1.4,8.7-4.2,11.7
		c-2.8,2.9-6.7,5.1-11.6,6.4C461.1,94.5,455.3,95.1,448.8,95.1z"/>
	<path class="st0" d="M493.2,94V28.3h12.5v39.6L531,46.2h15.6l-20.5,19L547.4,94h-14.9l-15.8-21.3l-10.9,8.1V94H493.2z"/>
	<path class="st0" d="M560,112c-1.7,0-3.2-0.1-4.6-0.4c-1.4-0.3-2.7-0.7-3.9-1.1v-8.2h6.3c2.8,0,5-0.3,6.6-1c1.6-0.6,3-1.6,4-2.8
		c1-1.2,2-2.7,2.9-4.5l-23.4-47.9h13.7l10.4,23.2c0.5,1.1,1.2,2.4,1.9,4c0.7,1.6,1.4,3.2,2.1,4.9c0.7,1.6,1.4,3.1,1.9,4.3h0.7
		c0.7-1.9,1.3-3.5,1.9-5c0.6-1.4,1.2-2.9,1.8-4.4c0.6-1.5,1.1-2.9,1.6-4.1l9.3-22.9h13.2l-19.4,43.3c-1.6,3.6-3.2,6.8-4.8,9.5
		c-1.5,2.8-3.3,5.1-5.2,7.1c-1.9,1.9-4.3,3.4-6.9,4.4C567.1,111.5,563.8,112,560,112z"/>
</g>
<g>
	<radialGradient id="SVGID_1_" cx="64.559" cy="64.6019" r="47.4491" gradientUnits="userSpaceOnUse">
		<stop  offset="0" style="stop-color:#FFE785"/>
		<stop  offset="0.4469" style="stop-color:#FFD500"/>
		<stop  offset="0.5825" style="stop-color:#EFBD0E"/>
		<stop  offset="0.7263" style="stop-color:#E2AA19"/>
		<stop  offset="0.8264" style="stop-color:#DDA31D"/>
	</radialGradient>
	<path class="st1" d="M84.7,64.1c0.2,11.4-9.1,20.7-20.5,20.5c-10.8-0.2-19.6-9-19.8-19.8c-0.2-11.4,9.1-20.7,20.5-20.5
		C75.7,44.5,84.5,53.3,84.7,64.1z"/>
	
		<linearGradient id="SVGID_00000049187458220471829750000017703974767478530206_" gradientUnits="userSpaceOnUse" x1="92.4132" y1="31.9351" x2="-8.6184" y2="31.9351">
		<stop  offset="0" style="stop-color:#228DD4"/>
		<stop  offset="1" style="stop-color:#074066"/>
	</linearGradient>
	<path style="fill:url(#SVGID_00000049187458220471829750000017703974767478530206_);" d="M118.9,36.4c0,10.9-8.9,19.9-19.8,20.1
		c-3.6,0.1-7-0.8-9.9-2.4c-0.9-0.5-1.7-1.2-2.2-2.1c0,0,0,0,0,0c-0.2-0.3-0.4-0.7-0.5-1.1c-1.7-5.3-4.4-10.2-7.9-14.4
		c-8.1-9.9-20.5-16.2-34.3-16.2c-24.3,0-44,19.5-44.3,43.7C0.3,28.5,29.1,0,64.5,0c19.5,0,36.9,8.6,48.7,22.2
		c0.7,0.8,1.4,1.6,2.1,2.5C117.6,28,118.9,32,118.9,36.4z"/>
	
		<linearGradient id="SVGID_00000088108488368423375960000014082221091622881449_" gradientUnits="userSpaceOnUse" x1="92.4132" y1="97.0649" x2="-8.6184" y2="97.0649">
		<stop  offset="0" style="stop-color:#228DD4"/>
		<stop  offset="1" style="stop-color:#074066"/>
	</linearGradient>
	<path style="fill:url(#SVGID_00000088108488368423375960000014082221091622881449_);" d="M118.9,92.6c0,4.3-1.3,8.3-3.6,11.6
		c0,0,0,0,0,0c-0.7,0.9-1.4,1.7-2.1,2.5c0,0,0,0,0,0C101.4,120.4,84,129,64.5,129C29.1,129,0.3,100.5,0,65.1
		c0.3,24.2,20.1,43.7,44.3,43.7c13.8,0,26.1-6.3,34.3-16.2v0c3.5-4.2,6.2-9.1,7.9-14.4c0.1-0.4,0.3-0.7,0.5-1.1c0,0,0,0,0,0
		c0.5-0.9,1.3-1.6,2.2-2.1c2.9-1.6,6.3-2.5,9.9-2.4C110,72.8,118.9,81.7,118.9,92.6z"/>
	
		<linearGradient id="SVGID_00000150100906127232598370000000071127614278555554_" gradientUnits="userSpaceOnUse" x1="-13.2463" y1="64.5" x2="46.4311" y2="64.5">
		<stop  offset="0" style="stop-color:#228DD4"/>
		<stop  offset="1" style="stop-color:#074066"/>
	</linearGradient>
	<path style="fill:url(#SVGID_00000150100906127232598370000000071127614278555554_);" d="M86.7,77.6c-1.7,5.6-4.5,10.6-8.1,15v0
		c-8.1,9.9-20.5,16.2-34.3,16.2c-24.3,0-44-19.5-44.3-43.7c0-0.2,0-0.4,0-0.6c0-0.2,0-0.4,0-0.6c0.3-24.2,20.1-43.7,44.3-43.7
		c13.8,0,26.1,6.3,34.3,16.2c3.6,4.4,6.4,9.5,8.1,15C85,48.5,82.8,46,80.1,44c-4.4-3.4-9.9-5.3-15.9-5.3
		c-13.9,0.1-25.4,11.5-25.5,25.4c-0.2,14.4,11.4,26.2,25.8,26.2c5.9,0,11.3-2,15.6-5.3C82.8,83,85,80.5,86.7,77.6z"/>
</g>
</svg>
