<?xml version="1.0" encoding="utf-8"?>
<!-- Generator: Adobe Illustrator 26.5.0, SVG Export Plug-In . SVG Version: 6.00 Build 0)  -->
<svg version="1.1" id="Capa_1" xmlns="http://www.w3.org/2000/svg" xmlns:xlink="http://www.w3.org/1999/xlink" x="0px" y="0px"
	 viewBox="0 0 471.1 512" style="enable-background:new 0 0 471.1 512;" xml:space="preserve">
<style type="text/css">
	.st0{fill:url(#SVGID_1_);}
	.st1{fill:url(#SVGID_00000016795938072892808370000009023772894564890504_);}
	.st2{fill:url(#SVGID_00000013880907272957177490000004975131067492443037_);}
	.st3{fill:url(#SVGID_00000036972776472740595680000005724271117710235266_);}
</style>
<g>
	
		<radialGradient id="SVGID_1_" cx="255.7336" cy="257.0965" r="187.9574" gradientTransform="matrix(1 0 0 -1 0 514)" gradientUnits="userSpaceOnUse">
		<stop  offset="0" style="stop-color:#FFE785"/>
		<stop  offset="0.4469" style="stop-color:#FFD500"/>
		<stop  offset="0.5825" style="stop-color:#EFBD0E"/>
		<stop  offset="0.7263" style="stop-color:#E2AA19"/>
		<stop  offset="0.8264" style="stop-color:#DDA31D"/>
	</radialGradient>
	<path class="st0" d="M335.3,255c0.8,45.3-36.1,82.2-81.3,81.3c-42.7-0.8-77.5-35.6-78.3-78.3c-0.8-45.3,36.1-82.2,81.3-81.3
		C299.7,177.5,334.5,212.3,335.3,255z"/>
	
		<linearGradient id="SVGID_00000078726718419827288810000001330336839034264765_" gradientUnits="userSpaceOnUse" x1="366.0709" y1="386.5" x2="-34.1395" y2="386.5" gradientTransform="matrix(1 0 0 -1 0 514)">
		<stop  offset="0" style="stop-color:#228DD4"/>
		<stop  offset="1" style="stop-color:#074066"/>
	</linearGradient>
	<path style="fill:url(#SVGID_00000078726718419827288810000001330336839034264765_);" d="M471.1,145.1
		c-0.2,43.2-35.2,78.7-78.4,79.5c-14.3,0.3-27.7-3.2-39.4-9.5c-3.6-1.9-6.6-4.8-8.6-8.4c0,0,0,0,0-0.1c-0.8-1.4-1.4-2.8-1.9-4.3
		c-6.9-21.1-17.6-40.5-31.4-57.2c-32.2-39.2-81.1-64.2-135.7-64.2C79.5,80.8,1.4,158.1,0,254C1.3,114,115.2,1,255.5,1
		c77.1,0,146.2,34.1,193,88.1c2.8,3.2,5.5,6.5,8.2,9.9C465.8,112.1,471.1,127.9,471.1,145.1z"/>
	
		<linearGradient id="SVGID_00000031197393546994361960000001925462350303448213_" gradientUnits="userSpaceOnUse" x1="366.0709" y1="128.55" x2="-34.1395" y2="128.55" gradientTransform="matrix(1 0 0 -1 0 514)">
		<stop  offset="0" style="stop-color:#228DD4"/>
		<stop  offset="1" style="stop-color:#074066"/>
	</linearGradient>
	<path style="fill:url(#SVGID_00000031197393546994361960000001925462350303448213_);" d="M471.1,367.9c0.1,17.1-5.2,33-14.4,46l0,0
		c-2.6,3.4-5.4,6.7-8.2,9.9l0,0c-46.8,54-115.9,88.1-193,88.1C115.2,512,1.3,399,0,259c1.3,95.9,79.5,173.2,175.6,173.2
		c54.7,0,103.5-25,135.7-64.2l0,0c13.8-16.8,24.5-36.1,31.4-57.2c0.5-1.5,1.1-3,1.9-4.3c0,0,0,0,0-0.1c2-3.6,5-6.4,8.6-8.4
		c11.7-6.3,25.1-9.8,39.4-9.5C435.9,289.2,470.9,324.8,471.1,367.9z"/>
	
		<linearGradient id="SVGID_00000058561509590487306990000008645829183649596327_" gradientUnits="userSpaceOnUse" x1="-52.4718" y1="257.5" x2="183.9249" y2="257.5" gradientTransform="matrix(1 0 0 -1 0 514)">
		<stop  offset="0" style="stop-color:#228DD4"/>
		<stop  offset="1" style="stop-color:#074066"/>
	</linearGradient>
	<path style="fill:url(#SVGID_00000058561509590487306990000008645829183649596327_);" d="M343.5,308.5c-6.8,22-17.8,42.1-32.1,59.5
		l0,0c-32.2,39.2-81.1,64.2-135.7,64.2C79.5,432.2,1.4,354.9,0,259c0-0.8,0-1.7,0-2.5c0-0.8,0-1.7,0-2.5
		C1.4,158.1,79.5,80.8,175.7,80.8c54.7,0,103.5,25,135.7,64.2c14.3,17.4,25.3,37.5,32.1,59.5c-6.7-11.4-15.6-21.3-26.1-29.3
		c-17.4-13.3-39.3-21.1-62.9-20.9c-55.2,0.5-100.4,45.5-101.2,100.8c-0.8,57.1,45.3,103.6,102.2,103.6c23.3,0,44.7-7.8,61.9-20.9
		C327.9,329.8,336.8,319.9,343.5,308.5z"/>
</g>
</svg>
