<?xml version="1.0" encoding="utf-8"?>
<!-- Generator: Adobe Illustrator 26.5.0, SVG Export Plug-In . SVG Version: 6.00 Build 0)  -->
<svg version="1.1" id="Capa_1" xmlns="http://www.w3.org/2000/svg" xmlns:xlink="http://www.w3.org/1999/xlink" x="0px" y="0px"
	 viewBox="0 0 64 64" style="enable-background:new 0 0 64 64;" xml:space="preserve">
<style type="text/css">
	.st0{fill:url(#SVGID_1_);}
	.st1{fill:url(#SVGID_00000118365228842083336520000017065967810537680816_);}
</style>
<g>
	<linearGradient id="SVGID_1_" gradientUnits="userSpaceOnUse" x1="32" y1="-1.4405" x2="32" y2="84.8847">
		<stop  offset="0" style="stop-color:#FFFFFF"/>
		<stop  offset="1" style="stop-color:#ABAFC9"/>
	</linearGradient>
	<path class="st0" d="M58.13,36.18c-0.11-0.06-0.22-0.1-0.33-0.16c0.01,0,0.01,0,0.02-0.01c-0.16-0.09-0.33-0.15-0.5-0.23
		c-0.22-0.1-0.44-0.21-0.66-0.3c-0.21-0.08-0.43-0.15-0.65-0.22c-0.24-0.08-0.48-0.17-0.73-0.23c-0.21-0.06-0.44-0.09-0.66-0.13
		c-0.26-0.05-0.52-0.11-0.79-0.15c-0.24-0.03-0.49-0.03-0.73-0.05c-0.25-0.02-0.49-0.05-0.74-0.05c-0.43,0-0.85,0.03-1.26,0.08
		c-0.21,0.02-0.41,0.04-0.62,0.07c-2.43-5.22-7.01-9.24-12.6-10.93c-1.86-0.56-3.84-0.86-5.88-0.86c-2.06,0-4.04,0.31-5.91,0.87
		c-5.58,1.69-10.15,5.7-12.57,10.92c-0.28-0.05-0.56-0.08-0.84-0.1c-0.35-0.03-0.69-0.05-1.05-0.05C5.21,34.65,0,39.86,0,46.29
		c0,2.12,0.57,4.1,1.56,5.82c2,3.48,5.77,5.82,10.07,5.82h40.73c4.31,0,8.07-2.34,10.07-5.82c1-1.71,1.56-3.7,1.56-5.82
		C64,41.96,61.64,38.19,58.13,36.18z"/>
	
		<linearGradient id="SVGID_00000124120493061354413620000014591469879641686922_" gradientUnits="userSpaceOnUse" x1="36" y1="-1.4405" x2="36" y2="84.8847">
		<stop  offset="0" style="stop-color:#FFFFFF"/>
		<stop  offset="1" style="stop-color:#ABAFC9"/>
	</linearGradient>
	<path style="fill:url(#SVGID_00000124120493061354413620000014591469879641686922_);" d="M9.42,31.82
		c0.73-0.11,1.47-0.17,2.22-0.17h0.14C15.94,24.52,23.66,20.01,32,20.01s16.06,4.51,20.22,11.64h0.14c2.55,0,5.06,0.66,7.26,1.92
		c0.35,0.2,0.68,0.41,1.01,0.64c0.79-0.71,1.47-1.54,2-2.47C63.5,30.24,64,28.5,64,26.65c0-3.79-2.06-7.09-5.14-8.84
		c-1.48-0.86-3.2-1.34-5.04-1.34c-0.56,0-1.11,0.04-1.65,0.13C49.34,10.51,43.16,6.28,36,6.28S22.66,10.51,19.83,16.6
		c-0.54-0.09-1.09-0.13-1.65-0.13C12.56,16.47,8,21.02,8,26.65c0,1.85,0.5,3.59,1.37,5.09C9.39,31.77,9.4,31.79,9.42,31.82z"/>
</g>
</svg>
