<?xml version="1.0" encoding="utf-8"?>
<!-- Generator: Adobe Illustrator 26.5.0, SVG Export Plug-In . SVG Version: 6.00 Build 0)  -->
<svg version="1.1" id="Capa_1" xmlns="http://www.w3.org/2000/svg" xmlns:xlink="http://www.w3.org/1999/xlink" x="0px" y="0px"
	 viewBox="0 0 64 64" style="enable-background:new 0 0 64 64;" xml:space="preserve">
<style type="text/css">
	.st0{fill:url(#SVGID_1_);}
	.st1{fill:#ABAFC9;}
</style>
<g>
	<linearGradient id="SVGID_1_" gradientUnits="userSpaceOnUse" x1="32" y1="1.6938" x2="32" y2="33.1551">
		<stop  offset="0" style="stop-color:#FFFFFF"/>
		<stop  offset="1" style="stop-color:#ABAFC9"/>
	</linearGradient>
	<path class="st0" d="M58.13,20.02c-1.7-0.98-3.67-1.53-5.77-1.53c-0.64,0-1.27,0.05-1.88,0.16C47.24,11.68,40.18,6.85,32,6.85
		s-15.24,4.83-18.48,11.79c-0.61-0.1-1.24-0.16-1.88-0.16C5.21,18.49,0,23.7,0,30.12c0,2.12,0.57,4.11,1.56,5.82
		c2,3.48,5.77,5.82,10.07,5.82h40.73c4.31,0,8.07-2.34,10.07-5.82c1-1.71,1.56-3.7,1.56-5.82C64,25.8,61.64,22.02,58.13,20.02z"/>
</g>
<path class="st1" d="M56,49.35c-2.7,0-4.12-0.59-5.38-1.12c-1.14-0.47-2.12-0.88-4.23-0.88s-3.09,0.41-4.23,0.88
	c-1.25,0.52-2.68,1.12-5.38,1.12c-2.7,0-4.12-0.59-5.38-1.12c-1.14-0.48-2.12-0.88-4.22-0.88c-2.1,0-3.08,0.41-4.22,0.88
	c-1.25,0.52-2.68,1.12-5.38,1.12c-2.7,0-4.12-0.59-5.38-1.12c-1.14-0.48-2.12-0.88-4.22-0.88c-0.83,0-1.5-0.67-1.5-1.5
	s0.67-1.5,1.5-1.5c2.7,0,4.12,0.59,5.38,1.12c1.14,0.48,2.12,0.88,4.22,0.88c2.1,0,3.08-0.41,4.22-0.88
	c1.25-0.52,2.68-1.12,5.38-1.12c2.7,0,4.12,0.59,5.38,1.12c1.14,0.48,2.12,0.88,4.22,0.88c2.1,0,3.09-0.41,4.23-0.88
	c1.25-0.52,2.68-1.12,5.38-1.12s4.12,0.59,5.38,1.12c1.14,0.47,2.12,0.88,4.23,0.88c0.83,0,1.5,0.67,1.5,1.5S56.83,49.35,56,49.35z"
	/>
<path class="st1" d="M56,54.85c-2.7,0-4.12-0.59-5.38-1.12c-1.14-0.47-2.12-0.88-4.23-0.88s-3.09,0.41-4.23,0.88
	c-1.25,0.52-2.68,1.12-5.38,1.12c-2.7,0-4.12-0.59-5.38-1.12c-1.14-0.48-2.12-0.88-4.22-0.88c-2.1,0-3.08,0.41-4.22,0.88
	c-1.25,0.52-2.68,1.12-5.38,1.12c-2.7,0-4.12-0.59-5.38-1.12c-1.14-0.48-2.12-0.88-4.22-0.88c-0.83,0-1.5-0.67-1.5-1.5
	s0.67-1.5,1.5-1.5c2.7,0,4.12,0.59,5.38,1.12c1.14,0.48,2.12,0.88,4.22,0.88c2.1,0,3.08-0.41,4.22-0.88
	c1.25-0.52,2.68-1.12,5.38-1.12c2.7,0,4.12,0.59,5.38,1.12c1.14,0.48,2.12,0.88,4.22,0.88c2.1,0,3.09-0.41,4.23-0.88
	c1.25-0.52,2.68-1.12,5.38-1.12s4.12,0.59,5.38,1.12c1.14,0.47,2.12,0.88,4.23,0.88c0.83,0,1.5,0.67,1.5,1.5S56.83,54.85,56,54.85z"
	/>
<path class="st1" d="M56,59.85c-2.7,0-4.12-0.59-5.38-1.12c-1.14-0.47-2.12-0.88-4.23-0.88s-3.09,0.41-4.23,0.88
	c-1.25,0.52-2.68,1.12-5.38,1.12c-2.7,0-4.12-0.59-5.38-1.12c-1.14-0.48-2.12-0.88-4.22-0.88c-2.1,0-3.08,0.41-4.22,0.88
	c-1.25,0.52-2.68,1.12-5.38,1.12c-2.7,0-4.12-0.59-5.38-1.12c-1.14-0.48-2.12-0.88-4.22-0.88c-0.83,0-1.5-0.67-1.5-1.5
	s0.67-1.5,1.5-1.5c2.7,0,4.12,0.59,5.38,1.12c1.14,0.48,2.12,0.88,4.22,0.88c2.1,0,3.08-0.41,4.22-0.88
	c1.25-0.52,2.68-1.12,5.38-1.12c2.7,0,4.12,0.59,5.38,1.12c1.14,0.48,2.12,0.88,4.22,0.88c2.1,0,3.09-0.41,4.23-0.88
	c1.25-0.52,2.68-1.12,5.38-1.12s4.12,0.59,5.38,1.12c1.14,0.47,2.12,0.88,4.23,0.88c0.83,0,1.5,0.67,1.5,1.5S56.83,59.85,56,59.85z"
	/>
</svg>
