<?xml version="1.0" encoding="utf-8"?>
<!-- Generator: Adobe Illustrator 26.5.0, SVG Export Plug-In . SVG Version: 6.00 Build 0)  -->
<svg version="1.1" id="Capa_1" xmlns="http://www.w3.org/2000/svg" xmlns:xlink="http://www.w3.org/1999/xlink" x="0px" y="0px"
	 viewBox="0 0 64 64" style="enable-background:new 0 0 64 64;" xml:space="preserve">
<style type="text/css">
	.st0{fill:url(#SVGID_1_);}
	.st1{fill:#C2EBFF;}
</style>
<g>
	<linearGradient id="SVGID_1_" gradientUnits="userSpaceOnUse" x1="32" y1="4.9698" x2="32" y2="32.9984">
		<stop  offset="0" style="stop-color:#FFFFFF"/>
		<stop  offset="1" style="stop-color:#ABAFC9"/>
	</linearGradient>
	<path class="st0" d="M58.13,19.12c-1.7-0.98-3.67-1.53-5.77-1.53c-0.64,0-1.27,0.05-1.88,0.16C47.24,10.78,40.18,5.95,32,5.95
		s-15.24,4.83-18.48,11.79c-0.61-0.1-1.24-0.16-1.88-0.16C5.21,17.58,0,22.79,0,29.22c0,2.12,0.57,4.11,1.56,5.82
		c2,3.48,5.77,5.82,10.07,5.82h40.73c4.31,0,8.07-2.34,10.07-5.82c1-1.71,1.56-3.7,1.56-5.82C64,24.9,61.64,21.12,58.13,19.12z"/>
</g>
<polygon class="st1" points="36.03,49.51 31.1,47.7 27.07,51.07 27.97,56.25 32.9,58.05 36.93,54.68 "/>
<polygon class="st1" points="18.44,42.81 13.26,44.86 12.45,50.37 16.82,53.83 21.99,51.78 22.8,46.26 "/>
<polygon class="st1" points="46.14,44.84 42.89,44.08 40.62,46.52 41.59,49.71 44.84,50.47 47.12,48.03 "/>
</svg>
