<?xml version="1.0" encoding="utf-8"?>
<!-- Generator: Adobe Illustrator 26.5.0, SVG Export Plug-In . SVG Version: 6.00 Build 0)  -->
<svg version="1.1" id="Capa_1" xmlns="http://www.w3.org/2000/svg" xmlns:xlink="http://www.w3.org/1999/xlink" x="0px" y="0px"
	 viewBox="0 0 64 64" style="enable-background:new 0 0 64 64;" xml:space="preserve">
<style type="text/css">
	.st0{fill:url(#SVGID_1_);}
	.st1{fill:#ABAFC9;}
	.st2{fill:url(#SVGID_00000155825440524255794850000017059772371181939128_);}
</style>
<g>
	<linearGradient id="SVGID_1_" gradientUnits="userSpaceOnUse" x1="34.7006" y1="3.3049" x2="34.7006" y2="70.8413">
		<stop  offset="0" style="stop-color:#FCC924"/>
		<stop  offset="1" style="stop-color:#FF9C00"/>
	</linearGradient>
	<path class="st0" d="M57.97,29.2c0,0.52-0.02,1.03-0.05,1.53c-0.41,6.24-3.28,11.82-7.65,15.77c-0.06,0.05-0.12,0.1-0.18,0.16
		c-1.52,1.34-3.21,2.49-5.04,3.39c-3.12,1.55-6.63,2.42-10.35,2.42c-5.24,0-10.07-1.73-13.96-4.65c-0.49-0.37-0.97-0.76-1.43-1.16
		c-3.76-3.32-6.44-7.83-7.44-12.94c-0.29-1.45-0.44-2.97-0.44-4.51c0-12.85,10.42-23.27,23.27-23.27S57.97,16.34,57.97,29.2z"/>
</g>
<path class="st1" d="M62.23,46.65c-2,3.48-5.77,5.82-10.07,5.82c-1.8,0-3.51-0.41-5.03-1.14c-0.74-0.36-1.44-0.78-2.08-1.28
	c-3.12,1.55-6.63,2.42-10.35,2.42c-5.24,0-10.07-1.73-13.96-4.65c-1.12,1.49-2.59,2.7-4.28,3.51c-1.52,0.73-3.23,1.14-5.03,1.14
	c-4.31,0-8.07-2.34-10.07-5.82H62.23z"/>
<linearGradient id="SVGID_00000058559986198818139150000002293868393656583045_" gradientUnits="userSpaceOnUse" x1="31.7915" y1="14.6591" x2="31.7915" y2="79.0133">
	<stop  offset="0" style="stop-color:#FFFFFF"/>
	<stop  offset="1" style="stop-color:#ABAFC9"/>
</linearGradient>
<path style="fill:url(#SVGID_00000058559986198818139150000002293868393656583045_);" d="M57.92,36.55
	c-1.7-0.98-3.67-1.53-5.77-1.53c-0.64,0-1.27,0.05-1.88,0.16c-3.24-6.96-10.3-11.79-18.48-11.79s-15.24,4.83-18.48,11.79
	c-0.61-0.1-1.24-0.16-1.88-0.16C5,35.01-0.21,40.22-0.21,46.65c0,2.12,0.57,4.11,1.56,5.82c2,3.48,5.77,5.82,10.07,5.82h40.73
	c4.31,0,8.07-2.34,10.07-5.82c1-1.71,1.56-3.7,1.56-5.82C63.79,42.32,61.43,38.55,57.92,36.55z"/>
</svg>
