<?xml version="1.0" encoding="utf-8"?>
<!-- Generator: Adobe Illustrator 26.5.0, SVG Export Plug-In . SVG Version: 6.00 Build 0)  -->
<svg version="1.1" id="Capa_1" xmlns="http://www.w3.org/2000/svg" xmlns:xlink="http://www.w3.org/1999/xlink" x="0px" y="0px"
	 viewBox="0 0 64 64" style="enable-background:new 0 0 64 64;" xml:space="preserve">
<style type="text/css">
	.st0{fill:url(#SVGID_1_);}
	.st1{fill:#7DBCD8;}
</style>
<g>
	<linearGradient id="SVGID_1_" gradientUnits="userSpaceOnUse" x1="32" y1="3.7277" x2="32" y2="42.9779">
		<stop  offset="0" style="stop-color:#FFFFFF"/>
		<stop  offset="1" style="stop-color:#ABAFC9"/>
	</linearGradient>
	<path class="st0" d="M58.13,18.66c-1.7-0.98-3.67-1.53-5.77-1.53c-0.64,0-1.27,0.05-1.88,0.16C47.24,10.32,40.18,5.49,32,5.49
		s-15.24,4.83-18.48,11.79c-0.61-0.1-1.24-0.16-1.88-0.16C5.21,17.13,0,22.34,0,28.77c0,2.12,0.57,4.11,1.56,5.82
		c2,3.48,5.77,5.82,10.07,5.82h40.73c4.31,0,8.07-2.34,10.07-5.82c1-1.71,1.56-3.7,1.56-5.82C64,24.44,61.64,20.67,58.13,18.66z"/>
</g>
<path class="st1" d="M34.67,58.88c-0.01,0.01-0.01,0.02-0.02,0.03c-1.83,3.44-6.81,3.44-8.64,0C26,58.9,26,58.89,25.99,58.88
	c-1.65-3.12,2.37-9.36,4.34-13.44C32.29,49.52,36.32,55.76,34.67,58.88z"/>
<path class="st1" d="M22.38,54.39c0,0.01-0.01,0.02-0.01,0.02c-1.29,2.42-4.79,2.42-6.08,0c0-0.01-0.01-0.02-0.01-0.02
	c-1.16-2.2,1.67-6.58,3.05-9.46C20.7,47.81,23.54,52.19,22.38,54.39z"/>
<path class="st1" d="M42.5,51.82c0,0.01-0.01,0.01-0.01,0.02c-0.85,1.59-3.16,1.59-4.01,0c0-0.01-0.01-0.01-0.01-0.02
	c-0.76-1.45,1.1-4.34,2.01-6.23C41.4,47.49,43.27,50.38,42.5,51.82z"/>
</svg>
