<?xml version="1.0" encoding="utf-8"?>
<!-- Generator: Adobe Illustrator 26.5.0, SVG Export Plug-In . SVG Version: 6.00 Build 0)  -->
<svg version="1.1" id="Capa_1" xmlns="http://www.w3.org/2000/svg" xmlns:xlink="http://www.w3.org/1999/xlink" x="0px" y="0px"
	 viewBox="0 0 64 64" style="enable-background:new 0 0 64 64;" xml:space="preserve">
<style type="text/css">
	.st0{fill:url(#SVGID_1_);}
	.st1{fill:#C2EBFF;}
	.st2{fill:#7DBCD8;}
</style>
<g>
	
		<linearGradient id="SVGID_1_" gradientUnits="userSpaceOnUse" x1="31.995" y1="59.6183" x2="31.995" y2="27.8177" gradientTransform="matrix(1 0 0 -1 0 64)">
		<stop  offset="0" style="stop-color:#FFFFFF"/>
		<stop  offset="1" style="stop-color:#ABAFC9"/>
	</linearGradient>
	<path class="st0" d="M58.13,18.99c-1.7-0.98-3.67-1.53-5.77-1.53c-0.64,0-1.27,0.05-1.88,0.16C47.24,10.65,40.18,5.82,32,5.82
		s-15.24,4.83-18.48,11.79c-0.61-0.1-1.24-0.16-1.88-0.16C5.21,17.46,0,22.67,0,29.1c0,2.12,0.57,4.11,1.56,5.82
		c2,3.48,5.77,5.82,10.07,5.82h40.73c4.31,0,8.07-2.34,10.07-5.82c1-1.71,1.56-3.7,1.56-5.82C64,24.77,61.64,21,58.13,18.99z"/>
</g>
<path class="st1" d="M16.24,45.92l-1.15-1.15c-0.14-0.14-0.14-0.36,0-0.49s0.36-0.14,0.5,0l0.65,0.65l0.65-0.65
	c0.14-0.14,0.36-0.14,0.5,0s0.14,0.36,0,0.5L16.24,45.92z"/>
<path class="st1" d="M16.24,45.78c-0.19,0-0.35-0.16-0.35-0.35v-1.41c0-0.19,0.16-0.35,0.35-0.35s0.35,0.16,0.35,0.35v1.41
	C16.59,45.62,16.44,45.78,16.24,45.78z"/>
<path class="st1" d="M16.24,49.12c-0.19,0-0.35-0.16-0.35-0.35v-3.35c0-0.19,0.16-0.35,0.35-0.35s0.35,0.16,0.35,0.35v3.35
	C16.59,48.97,16.44,49.12,16.24,49.12z"/>
<path class="st1" d="M15.34,53.37c-0.09,0-0.18-0.03-0.25-0.1c-0.14-0.14-0.14-0.36,0-0.49l1.15-1.15l1.15,1.15
	c0.14,0.14,0.14,0.36,0,0.5s-0.36,0.14-0.5,0l-0.65-0.65l-0.65,0.65C15.52,53.33,15.43,53.37,15.34,53.37z"/>
<path class="st1" d="M16.24,53.88c-0.19,0-0.35-0.16-0.35-0.35v-1.41c0-0.19,0.16-0.35,0.35-0.35s0.35,0.16,0.35,0.35v1.41
	C16.59,53.72,16.44,53.88,16.24,53.88z"/>
<path class="st1" d="M16.24,52.47c-0.19,0-0.35-0.16-0.35-0.35v-3.35c0-0.19,0.16-0.35,0.35-0.35s0.35,0.16,0.35,0.35v3.35
	C16.59,52.31,16.44,52.47,16.24,52.47z"/>
<path class="st1" d="M20.49,50.02c-0.09,0-0.18-0.03-0.25-0.1l-1.15-1.15l1.15-1.15c0.14-0.14,0.36-0.14,0.5,0s0.14,0.36,0,0.49
	l-0.65,0.65l0.65,0.65c0.14,0.14,0.14,0.36,0,0.5C20.67,49.99,20.58,50.02,20.49,50.02z"/>
<path class="st1" d="M21,49.12h-1.41c-0.19,0-0.35-0.16-0.35-0.35s0.16-0.35,0.35-0.35H21c0.19,0,0.35,0.16,0.35,0.35
	S21.19,49.12,21,49.12z"/>
<path class="st1" d="M19.59,49.12h-3.35c-0.19,0-0.35-0.16-0.35-0.35s0.16-0.35,0.35-0.35h3.35c0.19,0,0.35,0.16,0.35,0.35
	S19.78,49.12,19.59,49.12z"/>
<path class="st1" d="M12,50.02c-0.09,0-0.18-0.03-0.25-0.1c-0.14-0.14-0.14-0.36,0-0.5l0.65-0.65l-0.65-0.65
	c-0.14-0.14-0.14-0.36,0-0.49s0.36-0.14,0.5,0l1.15,1.15l-1.15,1.15C12.18,49.99,12.09,50.02,12,50.02z"/>
<path class="st1" d="M12.9,49.12h-1.41c-0.19,0-0.35-0.16-0.35-0.35s0.16-0.35,0.35-0.35h1.41c0.19,0,0.35,0.16,0.35,0.35
	S13.09,49.12,12.9,49.12z"/>
<path class="st1" d="M16.24,49.12H12.9c-0.19,0-0.35-0.16-0.35-0.35s0.16-0.35,0.35-0.35h3.35c0.19,0,0.35,0.16,0.35,0.35
	S16.44,49.12,16.24,49.12z"/>
<path class="st1" d="M18.61,52.76c-0.19,0-0.35-0.16-0.35-0.35v-1.62h1.62c0.19,0,0.35,0.16,0.35,0.35s-0.16,0.35-0.35,0.35h-0.92
	v0.92C18.96,52.6,18.8,52.76,18.61,52.76z"/>
<path class="st1" d="M19.61,52.49c-0.09,0-0.18-0.03-0.25-0.1l-1-1c-0.14-0.14-0.14-0.36,0-0.49s0.36-0.14,0.5,0l1,1
	c0.14,0.14,0.14,0.36,0,0.49C19.79,52.45,19.7,52.49,19.61,52.49z"/>
<path class="st1" d="M18.61,51.49c-0.09,0-0.18-0.03-0.25-0.1L16,49.02c-0.14-0.14-0.14-0.36,0-0.49c0.14-0.13,0.36-0.14,0.5,0
	l2.37,2.37c0.14,0.14,0.14,0.36,0,0.49C18.79,51.46,18.7,51.49,18.61,51.49z"/>
<path class="st1" d="M14.23,46.76h-1.62c-0.19,0-0.35-0.16-0.35-0.35s0.16-0.35,0.35-0.35h0.92v-0.92c0-0.19,0.16-0.35,0.35-0.35
	s0.35,0.16,0.35,0.35C14.23,45.14,14.23,46.76,14.23,46.76z"/>
<path class="st1" d="M13.88,46.76c-0.09,0-0.18-0.03-0.25-0.1l-1-1c-0.14-0.14-0.14-0.36,0-0.49s0.36-0.14,0.5,0l1,1
	c0.14,0.14,0.14,0.36,0,0.49C14.06,46.72,13.97,46.76,13.88,46.76z"/>
<path class="st1" d="M16.24,49.12c-0.09,0-0.18-0.03-0.25-0.1l-2.37-2.37c-0.14-0.14-0.14-0.36,0-0.49s0.36-0.14,0.5,0l2.37,2.37
	c0.14,0.14,0.14,0.36,0,0.49C16.42,49.09,16.33,49.12,16.24,49.12z"/>
<path class="st1" d="M13.88,52.76c-0.19,0-0.35-0.16-0.35-0.35v-0.92h-0.92c-0.19,0-0.35-0.16-0.35-0.35s0.16-0.35,0.35-0.35h1.62
	v1.62C14.23,52.6,14.07,52.76,13.88,52.76z"/>
<path class="st1" d="M12.88,52.49c-0.09,0-0.18-0.03-0.25-0.1c-0.14-0.14-0.14-0.36,0-0.49l1-1c0.14-0.14,0.36-0.14,0.5,0
	s0.14,0.36,0,0.49l-1,1C13.06,52.45,12.97,52.49,12.88,52.49z"/>
<path class="st1" d="M13.88,51.49c-0.09,0-0.18-0.03-0.25-0.1c-0.14-0.14-0.14-0.36,0-0.49L16,48.53c0.14-0.14,0.36-0.14,0.5,0
	s0.14,0.36,0,0.49l-2.37,2.37C14.06,51.46,13.97,51.49,13.88,51.49z"/>
<path class="st1" d="M19.88,46.76h-1.62v-1.62c0-0.19,0.16-0.35,0.35-0.35s0.35,0.16,0.35,0.35v0.92h0.92
	c0.19,0,0.35,0.16,0.35,0.35S20.07,46.76,19.88,46.76z"/>
<path class="st1" d="M18.61,46.76c-0.09,0-0.18-0.03-0.25-0.1c-0.14-0.14-0.14-0.36,0-0.49l1-1c0.14-0.14,0.36-0.14,0.5,0
	s0.14,0.36,0,0.49l-1,1C18.79,46.72,18.7,46.76,18.61,46.76z"/>
<path class="st1" d="M16.24,49.12c-0.09,0-0.18-0.03-0.25-0.1c-0.14-0.14-0.14-0.36,0-0.49l2.37-2.37c0.14-0.14,0.36-0.14,0.5,0
	s0.14,0.36,0,0.49l-2.37,2.37C16.42,49.09,16.33,49.12,16.24,49.12z"/>
<path class="st1" d="M46.25,45.74l-1.04-1.04c-0.14-0.14-0.14-0.36,0-0.49s0.36-0.14,0.49,0l0.55,0.54l0.55-0.54
	c0.14-0.14,0.36-0.14,0.49,0s0.14,0.36,0,0.49L46.25,45.74z"/>
<path class="st1" d="M46.25,45.59c-0.19,0-0.35-0.16-0.35-0.35V44c0-0.19,0.16-0.35,0.35-0.35S46.6,43.81,46.6,44v1.24
	C46.6,45.44,46.45,45.59,46.25,45.59z"/>
<path class="st1" d="M46.25,48.54c-0.19,0-0.35-0.16-0.35-0.35v-2.95c0-0.19,0.16-0.35,0.35-0.35s0.35,0.16,0.35,0.35v2.95
	C46.6,48.39,46.45,48.54,46.25,48.54z"/>
<path class="st1" d="M47.05,52.29c-0.09,0-0.18-0.03-0.25-0.1l-0.55-0.54l-0.55,0.54c-0.14,0.14-0.36,0.14-0.49,0s-0.14-0.36,0-0.49
	l1.04-1.04l1.04,1.04c0.14,0.14,0.14,0.36,0,0.49C47.23,52.26,47.14,52.29,47.05,52.29z"/>
<path class="st1" d="M46.25,52.74c-0.19,0-0.35-0.16-0.35-0.35v-1.24c0-0.19,0.16-0.35,0.35-0.35s0.35,0.16,0.35,0.35v1.24
	C46.6,52.58,46.45,52.74,46.25,52.74z"/>
<path class="st1" d="M46.25,51.5c-0.19,0-0.35-0.16-0.35-0.35V48.2c0-0.19,0.16-0.35,0.35-0.35S46.6,48,46.6,48.2v2.95
	C46.6,51.34,46.45,51.5,46.25,51.5z"/>
<path class="st1" d="M50,49.34c-0.09,0-0.18-0.03-0.25-0.1l-1.04-1.04l1.04-1.04c0.14-0.14,0.36-0.14,0.49,0s0.14,0.36,0,0.49
	L49.7,48.2l0.54,0.55c0.14,0.14,0.14,0.36,0,0.49C50.18,49.3,50.09,49.34,50,49.34z"/>
<path class="st1" d="M50.45,48.54h-1.24c-0.19,0-0.35-0.16-0.35-0.35s0.16-0.35,0.35-0.35h1.24c0.19,0,0.35,0.16,0.35,0.35
	S50.64,48.54,50.45,48.54z"/>
<path class="st1" d="M49.21,48.54h-2.95c-0.19,0-0.35-0.16-0.35-0.35s0.16-0.35,0.35-0.35h2.95c0.19,0,0.35,0.16,0.35,0.35
	S49.4,48.54,49.21,48.54z"/>
<path class="st1" d="M42.51,49.34c-0.09,0-0.18-0.03-0.25-0.1c-0.14-0.14-0.14-0.36,0-0.49l0.54-0.55l-0.54-0.55
	c-0.14-0.14-0.14-0.36,0-0.49s0.36-0.14,0.49,0l1.04,1.04l-1.04,1.04C42.69,49.3,42.6,49.34,42.51,49.34z"/>
<path class="st1" d="M43.3,48.54h-1.24c-0.19,0-0.35-0.16-0.35-0.35s0.16-0.35,0.35-0.35h1.24c0.19,0,0.35,0.16,0.35,0.35
	S43.5,48.54,43.3,48.54z"/>
<path class="st1" d="M46.25,48.54H43.3c-0.19,0-0.35-0.16-0.35-0.35s0.16-0.35,0.35-0.35h2.95c0.19,0,0.35,0.16,0.35,0.35
	S46.45,48.54,46.25,48.54z"/>
<path class="st1" d="M48.34,51.75c-0.19,0-0.35-0.16-0.35-0.35v-1.47h1.47c0.19,0,0.35,0.16,0.35,0.35s-0.16,0.35-0.35,0.35h-0.77
	v0.77C48.69,51.6,48.54,51.75,48.34,51.75z"/>
<path class="st1" d="M49.22,51.51c-0.09,0-0.18-0.03-0.25-0.1l-0.88-0.88c-0.14-0.14-0.14-0.36,0-0.49s0.36-0.14,0.49,0l0.88,0.88
	c0.14,0.14,0.14,0.36,0,0.49C49.4,51.48,49.31,51.51,49.22,51.51z"/>
<path class="st1" d="M48.34,50.63c-0.09,0-0.18-0.03-0.25-0.1L46,48.44c-0.14-0.14-0.14-0.36,0-0.49s0.36-0.14,0.49,0l2.09,2.09
	c0.14,0.14,0.14,0.36,0,0.49C48.52,50.6,48.43,50.63,48.34,50.63z"/>
<path class="st1" d="M44.52,46.46h-1.47c-0.19,0-0.35-0.16-0.35-0.35s0.16-0.35,0.35-0.35h0.77v-0.77c0-0.19,0.16-0.35,0.35-0.35
	s0.35,0.16,0.35,0.35C44.52,44.99,44.52,46.46,44.52,46.46z"/>
<path class="st1" d="M44.17,46.46c-0.09,0-0.18-0.03-0.25-0.1l-0.88-0.88c-0.14-0.14-0.14-0.36,0-0.5c0.14-0.13,0.36-0.14,0.5,0
	l0.88,0.88c0.14,0.14,0.14,0.36,0,0.5C44.34,46.42,44.26,46.46,44.17,46.46z"/>
<path class="st1" d="M46.25,48.54c-0.09,0-0.18-0.03-0.25-0.1l-2.09-2.09c-0.14-0.14-0.14-0.36,0-0.49s0.36-0.14,0.49,0l2.09,2.09
	c0.14,0.14,0.14,0.36,0,0.49C46.43,48.51,46.34,48.54,46.25,48.54z"/>
<path class="st1" d="M44.17,51.75c-0.19,0-0.35-0.16-0.35-0.35v-0.77h-0.77c-0.19,0-0.35-0.16-0.35-0.35s0.16-0.35,0.35-0.35h1.47
	v1.47C44.52,51.6,44.36,51.75,44.17,51.75z"/>
<path class="st1" d="M43.29,51.51c-0.09,0-0.18-0.03-0.25-0.1c-0.14-0.14-0.14-0.36,0-0.49l0.88-0.88c0.14-0.14,0.36-0.14,0.49,0
	s0.14,0.36,0,0.49l-0.88,0.88C43.47,51.48,43.38,51.51,43.29,51.51z"/>
<path class="st1" d="M44.17,50.63c-0.09,0-0.18-0.03-0.25-0.1c-0.14-0.14-0.14-0.36,0-0.49l2.09-2.09c0.14-0.14,0.36-0.14,0.49,0
	s0.14,0.36,0,0.49l-2.09,2.09C44.34,50.6,44.26,50.63,44.17,50.63z"/>
<path class="st1" d="M49.46,46.46h-1.47v-1.47c0-0.19,0.16-0.35,0.35-0.35s0.35,0.16,0.35,0.35v0.77h0.77
	c0.19,0,0.35,0.16,0.35,0.35S49.66,46.46,49.46,46.46z"/>
<path class="st1" d="M48.34,46.46c-0.09,0-0.18-0.03-0.25-0.1c-0.14-0.14-0.14-0.36,0-0.5l0.88-0.88c0.14-0.14,0.36-0.14,0.5,0
	s0.14,0.36,0,0.5l-0.88,0.88C48.52,46.42,48.43,46.46,48.34,46.46z"/>
<path class="st1" d="M46.25,48.54c-0.09,0-0.18-0.03-0.25-0.1c-0.14-0.14-0.14-0.36,0-0.49l2.09-2.09c0.14-0.14,0.36-0.14,0.49,0
	s0.14,0.36,0,0.49l-2.09,2.09C46.43,48.51,46.34,48.54,46.25,48.54z"/>
<path class="st2" d="M36.43,58.36c-0.01,0.01-0.01,0.02-0.02,0.03c-1.87,3.51-6.96,3.51-8.84,0c-0.01-0.01-0.01-0.02-0.02-0.03
	c-1.69-3.19,2.43-9.57,4.43-13.74C34,48.79,38.11,55.17,36.43,58.36z"/>
</svg>
