<?xml version="1.0" encoding="utf-8"?>
<!-- Generator: Adobe Illustrator 26.5.0, SVG Export Plug-In . SVG Version: 6.00 Build 0)  -->
<svg version="1.1" id="Capa_1" xmlns="http://www.w3.org/2000/svg" xmlns:xlink="http://www.w3.org/1999/xlink" x="0px" y="0px"
	 viewBox="0 0 64 64" style="enable-background:new 0 0 64 64;" xml:space="preserve">
<style type="text/css">
	.st0{fill:url(#SVGID_1_);}
	.st1{fill:#C2EBFF;}
</style>
<g>
	<linearGradient id="SVGID_1_" gradientUnits="userSpaceOnUse" x1="32" y1="4.3817" x2="32" y2="36.1823">
		<stop  offset="0" style="stop-color:#FFFFFF"/>
		<stop  offset="1" style="stop-color:#ABAFC9"/>
	</linearGradient>
	<path class="st0" d="M58.13,18.99c-1.7-0.98-3.67-1.53-5.77-1.53c-0.64,0-1.27,0.05-1.88,0.16C47.24,10.65,40.18,5.82,32,5.82
		s-15.24,4.83-18.48,11.79c-0.61-0.1-1.24-0.16-1.88-0.16C5.21,17.46,0,22.67,0,29.1c0,2.12,0.57,4.11,1.56,5.82
		c2,3.48,5.77,5.82,10.07,5.82h40.73c4.31,0,8.07-2.34,10.07-5.82c1-1.71,1.56-3.7,1.56-5.82C64,24.77,61.64,21,58.13,18.99z"/>
</g>
<path class="st1" d="M32,48.69l-1.76-1.76c-0.14-0.14-0.14-0.36,0-0.49s0.36-0.14,0.5,0L32,47.7l1.26-1.26
	c0.14-0.14,0.36-0.14,0.49,0s0.14,0.36,0,0.49L32,48.69z"/>
<path class="st1" d="M32,48.54c-0.19,0-0.35-0.16-0.35-0.35v-2.37c0-0.19,0.16-0.35,0.35-0.35s0.35,0.16,0.35,0.35v2.37
	C32.35,48.39,32.19,48.54,32,48.54z"/>
<path class="st1" d="M32,54.17c-0.19,0-0.35-0.16-0.35-0.35V48.2c0-0.19,0.16-0.35,0.35-0.35s0.35,0.16,0.35,0.35v5.63
	C32.35,54.02,32.19,54.17,32,54.17z"/>
<path class="st1" d="M33.51,61.31c-0.09,0-0.18-0.03-0.25-0.1L32,59.95l-1.26,1.26c-0.14,0.14-0.36,0.14-0.5,0s-0.14-0.36,0-0.49
	L32,58.96l1.76,1.76c0.14,0.14,0.14,0.36,0,0.49C33.69,61.28,33.6,61.31,33.51,61.31z"/>
<path class="st1" d="M32,62.17c-0.19,0-0.35-0.16-0.35-0.35v-2.37c0-0.19,0.16-0.35,0.35-0.35s0.35,0.16,0.35,0.35v2.37
	C32.35,62.02,32.19,62.17,32,62.17z"/>
<path class="st1" d="M32,59.8c-0.19,0-0.35-0.16-0.35-0.35v-5.63c0-0.19,0.16-0.35,0.35-0.35s0.35,0.16,0.35,0.35v5.63
	C32.35,59.65,32.19,59.8,32,59.8z"/>
<path class="st1" d="M39.14,55.68c-0.09,0-0.18-0.03-0.25-0.1l-1.76-1.76l1.76-1.76c0.14-0.14,0.36-0.14,0.49,0s0.14,0.36,0,0.49
	l-1.26,1.26l1.26,1.26c0.14,0.14,0.14,0.36,0,0.5C39.32,55.65,39.23,55.68,39.14,55.68z"/>
<path class="st1" d="M40,54.17h-2.37c-0.19,0-0.35-0.16-0.35-0.35s0.16-0.35,0.35-0.35H40c0.19,0,0.35,0.16,0.35,0.35
	S40.19,54.17,40,54.17z"/>
<path class="st1" d="M37.63,54.17H32c-0.19,0-0.35-0.16-0.35-0.35s0.16-0.35,0.35-0.35h5.63c0.19,0,0.35,0.16,0.35,0.35
	S37.82,54.17,37.63,54.17z"/>
<path class="st1" d="M24.86,55.68c-0.09,0-0.18-0.03-0.25-0.1c-0.14-0.14-0.14-0.36,0-0.49l1.26-1.26l-1.26-1.26
	c-0.14-0.14-0.14-0.36,0-0.5c0.14-0.14,0.36-0.14,0.5,0l1.76,1.76l-1.76,1.76C25.04,55.65,24.95,55.68,24.86,55.68z"/>
<path class="st1" d="M26.37,54.17H24c-0.19,0-0.35-0.16-0.35-0.35s0.16-0.35,0.35-0.35h2.37c0.19,0,0.35,0.16,0.35,0.35
	S26.56,54.17,26.37,54.17z"/>
<path class="st1" d="M32,54.17h-5.63c-0.19,0-0.35-0.16-0.35-0.35s0.16-0.35,0.35-0.35H32c0.19,0,0.35,0.16,0.35,0.35
	S32.19,54.17,32,54.17z"/>
<path class="st1" d="M35.98,60.29c-0.19,0-0.35-0.16-0.35-0.35v-2.49h2.49c0.19,0,0.35,0.16,0.35,0.35s-0.16,0.35-0.35,0.35h-1.79
	v1.79C36.33,60.13,36.17,60.29,35.98,60.29z"/>
<path class="st1" d="M37.66,59.83c-0.09,0-0.18-0.03-0.25-0.1l-1.68-1.68c-0.14-0.14-0.14-0.36,0-0.49c0.14-0.14,0.36-0.14,0.5,0
	l1.68,1.68c0.14,0.14,0.14,0.36,0,0.5C37.84,59.8,37.75,59.83,37.66,59.83z"/>
<path class="st1" d="M35.98,58.15c-0.09,0-0.18-0.03-0.25-0.1l-3.98-3.98c-0.14-0.14-0.14-0.36,0-0.49c0.14-0.14,0.36-0.14,0.5,0
	l3.98,3.98c0.14,0.14,0.14,0.36,0,0.49C36.16,58.12,36.07,58.15,35.98,58.15z"/>
<path class="st1" d="M28.37,50.19h-2.49c-0.19,0-0.35-0.16-0.35-0.35s0.16-0.35,0.35-0.35h1.79v-1.79c0-0.19,0.16-0.35,0.35-0.35
	s0.35,0.16,0.35,0.35V50.19z"/>
<path class="st1" d="M28.02,50.19c-0.09,0-0.18-0.03-0.25-0.1l-1.68-1.68c-0.14-0.14-0.14-0.36,0-0.49s0.36-0.14,0.5,0l1.68,1.68
	c0.14,0.14,0.14,0.36,0,0.49C28.2,50.16,28.11,50.19,28.02,50.19z"/>
<path class="st1" d="M32,54.17c-0.09,0-0.18-0.03-0.25-0.1l-3.98-3.98c-0.14-0.14-0.14-0.36,0-0.49s0.36-0.14,0.5,0l3.98,3.98
	c0.14,0.14,0.14,0.36,0,0.49C32.18,54.14,32.09,54.17,32,54.17z"/>
<path class="st1" d="M28.02,60.29c-0.19,0-0.35-0.16-0.35-0.35v-1.79h-1.79c-0.19,0-0.35-0.16-0.35-0.35s0.16-0.35,0.35-0.35h2.49
	v2.49C28.37,60.13,28.21,60.29,28.02,60.29z"/>
<path class="st1" d="M26.34,59.83c-0.09,0-0.18-0.03-0.25-0.1c-0.14-0.14-0.14-0.36,0-0.49l1.68-1.68c0.14-0.14,0.36-0.14,0.5,0
	s0.14,0.36,0,0.49l-1.68,1.68C26.52,59.8,26.43,59.83,26.34,59.83z"/>
<path class="st1" d="M28.02,58.15c-0.09,0-0.18-0.03-0.25-0.1c-0.14-0.14-0.14-0.36,0-0.49l3.98-3.98c0.14-0.14,0.36-0.14,0.5,0
	s0.14,0.36,0,0.49l-3.98,3.98C28.2,58.12,28.11,58.15,28.02,58.15z"/>
<path class="st1" d="M38.12,50.19h-2.49v-2.49c0-0.19,0.16-0.35,0.35-0.35s0.35,0.16,0.35,0.35v1.79h1.79
	c0.19,0,0.35,0.16,0.35,0.35S38.31,50.19,38.12,50.19z"/>
<path class="st1" d="M35.98,50.19c-0.09,0-0.18-0.03-0.25-0.1c-0.14-0.14-0.14-0.36,0-0.5l1.68-1.68c0.14-0.13,0.36-0.14,0.5,0
	c0.14,0.14,0.14,0.36,0,0.49l-1.68,1.68C36.16,50.16,36.07,50.19,35.98,50.19z"/>
<path class="st1" d="M32,54.17c-0.09,0-0.18-0.03-0.25-0.1c-0.14-0.14-0.14-0.36,0-0.49l3.98-3.98c0.14-0.14,0.36-0.14,0.49,0
	s0.14,0.36,0,0.49l-3.98,3.98C32.18,54.14,32.09,54.17,32,54.17z"/>
<path class="st1" d="M16.24,45.92l-1.15-1.15c-0.14-0.14-0.14-0.36,0-0.49s0.36-0.14,0.5,0l0.65,0.65l0.65-0.65
	c0.14-0.14,0.36-0.14,0.5,0c0.14,0.14,0.14,0.36,0,0.5L16.24,45.92z"/>
<path class="st1" d="M16.24,45.78c-0.19,0-0.35-0.16-0.35-0.35v-1.41c0-0.19,0.16-0.35,0.35-0.35s0.35,0.16,0.35,0.35v1.41
	C16.59,45.62,16.44,45.78,16.24,45.78z"/>
<path class="st1" d="M16.24,49.12c-0.19,0-0.35-0.16-0.35-0.35v-3.35c0-0.19,0.16-0.35,0.35-0.35s0.35,0.16,0.35,0.35v3.35
	C16.59,48.97,16.44,49.12,16.24,49.12z"/>
<path class="st1" d="M15.34,53.37c-0.09,0-0.18-0.03-0.25-0.1c-0.14-0.14-0.14-0.36,0-0.49l1.15-1.15l1.15,1.15
	c0.14,0.14,0.14,0.36,0,0.5s-0.36,0.14-0.5,0l-0.65-0.65l-0.65,0.65C15.52,53.33,15.43,53.37,15.34,53.37z"/>
<path class="st1" d="M16.24,53.88c-0.19,0-0.35-0.16-0.35-0.35v-1.41c0-0.19,0.16-0.35,0.35-0.35s0.35,0.16,0.35,0.35v1.41
	C16.59,53.72,16.44,53.88,16.24,53.88z"/>
<path class="st1" d="M16.24,52.47c-0.19,0-0.35-0.16-0.35-0.35v-3.35c0-0.19,0.16-0.35,0.35-0.35s0.35,0.16,0.35,0.35v3.35
	C16.59,52.31,16.44,52.47,16.24,52.47z"/>
<path class="st1" d="M20.49,50.02c-0.09,0-0.18-0.03-0.25-0.1l-1.15-1.15l1.15-1.15c0.14-0.14,0.36-0.14,0.5,0s0.14,0.36,0,0.49
	l-0.65,0.65l0.65,0.65c0.14,0.14,0.14,0.36,0,0.5C20.67,49.99,20.58,50.02,20.49,50.02z"/>
<path class="st1" d="M21,49.12h-1.41c-0.19,0-0.35-0.16-0.35-0.35s0.16-0.35,0.35-0.35H21c0.19,0,0.35,0.16,0.35,0.35
	S21.19,49.12,21,49.12z"/>
<path class="st1" d="M19.59,49.12h-3.35c-0.19,0-0.35-0.16-0.35-0.35s0.16-0.35,0.35-0.35h3.35c0.19,0,0.35,0.16,0.35,0.35
	S19.78,49.12,19.59,49.12z"/>
<path class="st1" d="M12,50.02c-0.09,0-0.18-0.03-0.25-0.1c-0.14-0.14-0.14-0.36,0-0.5l0.65-0.65l-0.65-0.65
	c-0.14-0.14-0.14-0.36,0-0.49s0.36-0.14,0.5,0l1.15,1.15l-1.15,1.15C12.18,49.99,12.09,50.02,12,50.02z"/>
<path class="st1" d="M12.9,49.12h-1.41c-0.19,0-0.35-0.16-0.35-0.35s0.16-0.35,0.35-0.35h1.41c0.19,0,0.35,0.16,0.35,0.35
	S13.09,49.12,12.9,49.12z"/>
<path class="st1" d="M16.24,49.12H12.9c-0.19,0-0.35-0.16-0.35-0.35s0.16-0.35,0.35-0.35h3.35c0.19,0,0.35,0.16,0.35,0.35
	S16.44,49.12,16.24,49.12z"/>
<path class="st1" d="M18.61,52.76c-0.19,0-0.35-0.16-0.35-0.35v-1.62h1.62c0.19,0,0.35,0.16,0.35,0.35s-0.16,0.35-0.35,0.35h-0.92
	v0.92C18.96,52.6,18.8,52.76,18.61,52.76z"/>
<path class="st1" d="M19.61,52.49c-0.09,0-0.18-0.03-0.25-0.1l-1-1c-0.14-0.14-0.14-0.36,0-0.49s0.36-0.14,0.5,0l1,1
	c0.14,0.14,0.14,0.36,0,0.49C19.79,52.45,19.7,52.49,19.61,52.49z"/>
<path class="st1" d="M18.61,51.49c-0.09,0-0.18-0.03-0.25-0.1L16,49.02c-0.14-0.14-0.14-0.36,0-0.49s0.36-0.14,0.5,0l2.37,2.37
	c0.14,0.14,0.14,0.36,0,0.49C18.79,51.46,18.7,51.49,18.61,51.49z"/>
<path class="st1" d="M14.23,46.76h-1.62c-0.19,0-0.35-0.16-0.35-0.35s0.16-0.35,0.35-0.35h0.92v-0.92c0-0.19,0.16-0.35,0.35-0.35
	s0.35,0.16,0.35,0.35V46.76z"/>
<path class="st1" d="M13.88,46.76c-0.09,0-0.18-0.03-0.25-0.1l-1-1c-0.14-0.14-0.14-0.36,0-0.49s0.36-0.14,0.5,0l1,1
	c0.14,0.14,0.14,0.36,0,0.49C14.06,46.72,13.97,46.76,13.88,46.76z"/>
<path class="st1" d="M16.24,49.12c-0.09,0-0.18-0.03-0.25-0.1l-2.37-2.37c-0.14-0.14-0.14-0.36,0-0.49s0.36-0.14,0.5,0l2.37,2.37
	c0.14,0.14,0.14,0.36,0,0.49C16.42,49.09,16.33,49.12,16.24,49.12z"/>
<path class="st1" d="M13.88,52.76c-0.19,0-0.35-0.16-0.35-0.35v-0.92h-0.92c-0.19,0-0.35-0.16-0.35-0.35s0.16-0.35,0.35-0.35h1.62
	v1.62C14.23,52.6,14.07,52.76,13.88,52.76z"/>
<path class="st1" d="M12.88,52.49c-0.09,0-0.18-0.03-0.25-0.1c-0.14-0.14-0.14-0.36,0-0.49l1-1c0.14-0.14,0.36-0.14,0.5,0
	s0.14,0.36,0,0.49l-1,1C13.06,52.45,12.97,52.49,12.88,52.49z"/>
<path class="st1" d="M13.88,51.49c-0.09,0-0.18-0.03-0.25-0.1c-0.14-0.14-0.14-0.36,0-0.49L16,48.53c0.14-0.14,0.36-0.14,0.5,0
	c0.14,0.14,0.14,0.36,0,0.49l-2.37,2.37C14.06,51.46,13.97,51.49,13.88,51.49z"/>
<path class="st1" d="M19.88,46.76h-1.62v-1.62c0-0.19,0.16-0.35,0.35-0.35s0.35,0.16,0.35,0.35v0.92h0.92
	c0.19,0,0.35,0.16,0.35,0.35S20.07,46.76,19.88,46.76z"/>
<path class="st1" d="M18.61,46.76c-0.09,0-0.18-0.03-0.25-0.1c-0.14-0.14-0.14-0.36,0-0.49l1-1c0.14-0.14,0.36-0.14,0.5,0
	s0.14,0.36,0,0.49l-1,1C18.79,46.72,18.7,46.76,18.61,46.76z"/>
<path class="st1" d="M16.24,49.12c-0.09,0-0.18-0.03-0.25-0.1c-0.14-0.14-0.14-0.36,0-0.49l2.37-2.37c0.14-0.14,0.36-0.14,0.5,0
	c0.14,0.14,0.14,0.36,0,0.49l-2.37,2.37C16.42,49.09,16.33,49.12,16.24,49.12z"/>
<path class="st1" d="M46.25,45.74l-1.04-1.04c-0.14-0.14-0.14-0.36,0-0.49s0.36-0.14,0.49,0l0.55,0.54l0.55-0.54
	c0.14-0.14,0.36-0.14,0.49,0s0.14,0.36,0,0.49L46.25,45.74z"/>
<path class="st1" d="M46.25,45.59c-0.19,0-0.35-0.16-0.35-0.35V44c0-0.19,0.16-0.35,0.35-0.35S46.6,43.81,46.6,44v1.24
	C46.6,45.44,46.45,45.59,46.25,45.59z"/>
<path class="st1" d="M46.25,48.54c-0.19,0-0.35-0.16-0.35-0.35v-2.95c0-0.19,0.16-0.35,0.35-0.35s0.35,0.16,0.35,0.35v2.95
	C46.6,48.39,46.45,48.54,46.25,48.54z"/>
<path class="st1" d="M47.05,52.29c-0.09,0-0.18-0.03-0.25-0.1l-0.55-0.54l-0.55,0.54c-0.14,0.14-0.36,0.14-0.49,0s-0.14-0.36,0-0.49
	l1.04-1.04l1.04,1.04c0.14,0.14,0.14,0.36,0,0.49C47.23,52.26,47.14,52.29,47.05,52.29z"/>
<path class="st1" d="M46.25,52.74c-0.19,0-0.35-0.16-0.35-0.35v-1.24c0-0.19,0.16-0.35,0.35-0.35s0.35,0.16,0.35,0.35v1.24
	C46.6,52.58,46.45,52.74,46.25,52.74z"/>
<path class="st1" d="M46.25,51.5c-0.19,0-0.35-0.16-0.35-0.35V48.2c0-0.19,0.16-0.35,0.35-0.35S46.6,48,46.6,48.2v2.95
	C46.6,51.34,46.45,51.5,46.25,51.5z"/>
<path class="st1" d="M50,49.34c-0.09,0-0.18-0.03-0.25-0.1l-1.04-1.04l1.04-1.04c0.14-0.14,0.36-0.14,0.49,0s0.14,0.36,0,0.49
	L49.7,48.2l0.54,0.55c0.14,0.14,0.14,0.36,0,0.49C50.18,49.3,50.09,49.34,50,49.34z"/>
<path class="st1" d="M50.45,48.54h-1.24c-0.19,0-0.35-0.16-0.35-0.35s0.16-0.35,0.35-0.35h1.24c0.19,0,0.35,0.16,0.35,0.35
	S50.64,48.54,50.45,48.54z"/>
<path class="st1" d="M49.21,48.54h-2.95c-0.19,0-0.35-0.16-0.35-0.35s0.16-0.35,0.35-0.35h2.95c0.19,0,0.35,0.16,0.35,0.35
	S49.4,48.54,49.21,48.54z"/>
<path class="st1" d="M42.51,49.34c-0.09,0-0.18-0.03-0.25-0.1c-0.14-0.14-0.14-0.36,0-0.49l0.54-0.55l-0.54-0.55
	c-0.14-0.14-0.14-0.36,0-0.49s0.36-0.14,0.49,0l1.04,1.04l-1.04,1.04C42.69,49.3,42.6,49.34,42.51,49.34z"/>
<path class="st1" d="M43.3,48.54h-1.24c-0.19,0-0.35-0.16-0.35-0.35s0.16-0.35,0.35-0.35h1.24c0.19,0,0.35,0.16,0.35,0.35
	S43.5,48.54,43.3,48.54z"/>
<path class="st1" d="M46.25,48.54H43.3c-0.19,0-0.35-0.16-0.35-0.35s0.16-0.35,0.35-0.35h2.95c0.19,0,0.35,0.16,0.35,0.35
	S46.45,48.54,46.25,48.54z"/>
<path class="st1" d="M48.34,51.75c-0.19,0-0.35-0.16-0.35-0.35v-1.47h1.47c0.19,0,0.35,0.16,0.35,0.35s-0.16,0.35-0.35,0.35h-0.77
	v0.77C48.69,51.6,48.54,51.75,48.34,51.75z"/>
<path class="st1" d="M49.22,51.51c-0.09,0-0.18-0.03-0.25-0.1l-0.88-0.88c-0.14-0.14-0.14-0.36,0-0.49s0.36-0.14,0.49,0l0.88,0.88
	c0.14,0.14,0.14,0.36,0,0.49C49.4,51.48,49.31,51.51,49.22,51.51z"/>
<path class="st1" d="M48.34,50.63c-0.09,0-0.18-0.03-0.25-0.1l-2.09-2.09c-0.14-0.14-0.14-0.36,0-0.49s0.36-0.14,0.49,0l2.09,2.09
	c0.14,0.14,0.14,0.36,0,0.49C48.52,50.6,48.43,50.63,48.34,50.63z"/>
<path class="st1" d="M44.52,46.46h-1.47c-0.19,0-0.35-0.16-0.35-0.35s0.16-0.35,0.35-0.35h0.77v-0.77c0-0.19,0.16-0.35,0.35-0.35
	s0.35,0.16,0.35,0.35V46.46z"/>
<path class="st1" d="M44.17,46.46c-0.09,0-0.18-0.03-0.25-0.1l-0.88-0.88c-0.14-0.14-0.14-0.36,0-0.5c0.14-0.13,0.36-0.14,0.5,0
	l0.88,0.88c0.14,0.14,0.14,0.36,0,0.5C44.34,46.42,44.26,46.46,44.17,46.46z"/>
<path class="st1" d="M46.25,48.54c-0.09,0-0.18-0.03-0.25-0.1l-2.09-2.09c-0.14-0.14-0.14-0.36,0-0.49s0.36-0.14,0.49,0l2.09,2.09
	c0.14,0.14,0.14,0.36,0,0.49C46.43,48.51,46.34,48.54,46.25,48.54z"/>
<path class="st1" d="M44.17,51.75c-0.19,0-0.35-0.16-0.35-0.35v-0.77h-0.77c-0.19,0-0.35-0.16-0.35-0.35s0.16-0.35,0.35-0.35h1.47
	v1.47C44.52,51.6,44.36,51.75,44.17,51.75z"/>
<path class="st1" d="M43.29,51.51c-0.09,0-0.18-0.03-0.25-0.1c-0.14-0.14-0.14-0.36,0-0.49l0.88-0.88c0.14-0.14,0.36-0.14,0.49,0
	s0.14,0.36,0,0.49l-0.88,0.88C43.47,51.48,43.38,51.51,43.29,51.51z"/>
<path class="st1" d="M44.17,50.63c-0.09,0-0.18-0.03-0.25-0.1c-0.14-0.14-0.14-0.36,0-0.49l2.09-2.09c0.14-0.14,0.36-0.14,0.49,0
	s0.14,0.36,0,0.49l-2.09,2.09C44.34,50.6,44.26,50.63,44.17,50.63z"/>
<path class="st1" d="M49.46,46.46h-1.47v-1.47c0-0.19,0.16-0.35,0.35-0.35s0.35,0.16,0.35,0.35v0.77h0.77
	c0.19,0,0.35,0.16,0.35,0.35S49.66,46.46,49.46,46.46z"/>
<path class="st1" d="M48.34,46.46c-0.09,0-0.18-0.03-0.25-0.1c-0.14-0.14-0.14-0.36,0-0.5l0.88-0.88c0.14-0.14,0.36-0.14,0.5,0
	c0.14,0.14,0.14,0.36,0,0.5l-0.88,0.88C48.52,46.42,48.43,46.46,48.34,46.46z"/>
<path class="st1" d="M46.25,48.54c-0.09,0-0.18-0.03-0.25-0.1c-0.14-0.14-0.14-0.36,0-0.49l2.09-2.09c0.14-0.14,0.36-0.14,0.49,0
	s0.14,0.36,0,0.49l-2.09,2.09C46.43,48.51,46.34,48.54,46.25,48.54z"/>
</svg>
