<?xml version="1.0" encoding="utf-8"?>
<!-- Generator: Adobe Illustrator 26.5.0, SVG Export Plug-In . SVG Version: 6.00 Build 0)  -->
<svg version="1.1" id="Capa_1" xmlns="http://www.w3.org/2000/svg" xmlns:xlink="http://www.w3.org/1999/xlink" x="0px" y="0px"
	 viewBox="0 0 64 64" style="enable-background:new 0 0 64 64;" xml:space="preserve">
<style type="text/css">
	.st0{fill:url(#SVGID_1_);}
	.st1{fill:url(#SVGID_00000054944571753070867670000008117655672133467031_);}
	.st2{fill:url(#SVGID_00000036935168558776760500000015164812789597477567_);}
</style>
<linearGradient id="SVGID_1_" gradientUnits="userSpaceOnUse" x1="6.5" y1="21.2908" x2="33.5" y2="21.2908">
	<stop  offset="0" style="stop-color:#FFFFFF"/>
	<stop  offset="1" style="stop-color:#ABAFC9"/>
</linearGradient>
<path class="st0" d="M27.2,27.59H8c-0.83,0-1.5-0.67-1.5-1.5s0.67-1.5,1.5-1.5h19.2c1.82,0,3.3-1.48,3.3-3.3s-1.48-3.3-3.3-3.3
	c-1.82,0-3.3,1.48-3.3,3.3c0,0.83-0.67,1.5-1.5,1.5s-1.5-0.67-1.5-1.5c0-3.47,2.83-6.3,6.3-6.3c3.47,0,6.3,2.83,6.3,6.3
	S30.67,27.59,27.2,27.59z"/>
<linearGradient id="SVGID_00000027574127502207389040000008055533509020770480_" gradientUnits="userSpaceOnUse" x1="6.5" y1="48.491" x2="41.5" y2="48.491">
	<stop  offset="0" style="stop-color:#FFFFFF"/>
	<stop  offset="1" style="stop-color:#ABAFC9"/>
</linearGradient>
<path style="fill:url(#SVGID_00000027574127502207389040000008055533509020770480_);" d="M33.6,56.39c-4.36,0-7.9-3.54-7.9-7.9
	c0-0.83,0.67-1.5,1.5-1.5s1.5,0.67,1.5,1.5c0,2.7,2.2,4.9,4.9,4.9c2.7,0,4.9-2.2,4.9-4.9s-2.2-4.9-4.9-4.9H8
	c-0.83,0-1.5-0.67-1.5-1.5s0.67-1.5,1.5-1.5h25.6c4.36,0,7.9,3.54,7.9,7.9S37.96,56.39,33.6,56.39z"/>
<linearGradient id="SVGID_00000092419890240618698070000017126821693333606579_" gradientUnits="userSpaceOnUse" x1="6.5" y1="24.4907" x2="57.5" y2="24.4907">
	<stop  offset="0" style="stop-color:#FFFFFF"/>
	<stop  offset="1" style="stop-color:#ABAFC9"/>
</linearGradient>
<path style="fill:url(#SVGID_00000092419890240618698070000017126821693333606579_);" d="M46.4,35.59H8c-0.83,0-1.5-0.67-1.5-1.5
	s0.67-1.5,1.5-1.5h38.4c4.47,0,8.1-3.63,8.1-8.1c0-4.47-3.63-8.1-8.1-8.1c-4.47,0-8.1,3.63-8.1,8.1c0,0.83-0.67,1.5-1.5,1.5
	s-1.5-0.67-1.5-1.5c0-6.12,4.98-11.1,11.1-11.1c6.12,0,11.1,4.98,11.1,11.1C57.5,30.61,52.52,35.59,46.4,35.59z"/>
</svg>
